<svg xmlns="http://www.w3.org/2000/svg" viewBox="0 0 788 744" width="788" height="744">
<style>
  @keyframes blink { 0%,100%{opacity:1} 50%{opacity:0} }
  text { font-family: "JetBrains Mono","Fira Code","SF Mono",Menlo,Monaco,monospace; font-size: 13px; white-space: pre; }
</style>
<defs>
  <clipPath id="clip"><rect x="0" y="32" width="788" height="712" rx="0"/></clipPath>
</defs>
<!-- Window chrome -->
<rect width="788" height="744" rx="8" fill="#1e1e2e"/>
<rect width="788" height="32" rx="8" fill="#181825"/>
<rect x="0" y="20" width="788" height="12" fill="#181825"/>
<circle cx="20" cy="16" r="6" fill="#f38ba8"/>
<circle cx="38" cy="16" r="6" fill="#f9e2af"/>
<circle cx="56" cy="16" r="6" fill="#a6e3a1"/>
<text x="394" y="20" fill="#6c7086" text-anchor="middle" font-size="12">idea-to-deploy demo</text>
<g clip-path="url(#clip)">
<text x="16" y="48" fill="#6c7086">$</text>
<text x="24.4" y="48" fill="#cdd6f4"> claude</text>
<text x="16" y="65" fill="#94e2d5" font-weight="bold">╭─────────────────────────────────────────────────────────╮</text>
<text x="16" y="82" fill="#94e2d5" font-weight="bold">│</text>
<text x="41.2" y="82" fill="#cdd6f4" font-weight="bold">Claude Code</text>
<text x="133.60000000000002" y="82" fill="#cdd6f4"> v1.11.0</text>
<text x="217.60000000000002" y="82" fill="#6c7086">(idea-to-deploy plugin loaded)</text>
<text x="486.40000000000003" y="82" fill="#94e2d5" font-weight="bold">│</text>
<text x="16" y="99" fill="#94e2d5" font-weight="bold">╰─────────────────────────────────────────────────────────╯</text>
<text x="16" y="133" fill="#a6e3a1" font-weight="bold">&gt;</text>
<text x="24.4" y="133" fill="#cdd6f4"> /kickstart</text>
<text x="16" y="167" fill="#f9e2af" font-weight="bold">⚡ Kickstart</text>
<text x="108.4" y="167" fill="#cdd6f4"> — describe your project idea:</text>
<text x="16" y="184" fill="#a6e3a1" font-weight="bold">&gt;</text>
<text x="24.4" y="184" fill="#cdd6f4"> SaaS habit tracker with Telegram bot</text>
<text x="16" y="218" fill="#94e2d5" font-weight="bold">🔍 Phase 1: Planning</text>
<text x="32.8" y="235" fill="#6c7086">├─</text>
<text x="49.6" y="235" fill="#cdd6f4"> Generating strategic plan...</text>
<text x="343.6" y="235" fill="#a6e3a1" font-weight="bold">✓</text>
<text x="32.8" y="252" fill="#6c7086">├─</text>
<text x="49.6" y="252" fill="#cdd6f4"> Generating PRD...</text>
<text x="352" y="252" fill="#a6e3a1" font-weight="bold">✓</text>
<text x="32.8" y="269" fill="#6c7086">└─</text>
<text x="49.6" y="269" fill="#cdd6f4"> Generating architecture doc...</text>
<text x="360.40000000000003" y="269" fill="#a6e3a1" font-weight="bold">✓</text>
<text x="16" y="303" fill="#94e2d5" font-weight="bold">🏗️  Phase 2: Architecture</text>
<text x="32.8" y="320" fill="#6c7086">├─</text>
<text x="49.6" y="320" fill="#cdd6f4"> Database schema (PostgreSQL)...</text>
<text x="352" y="320" fill="#a6e3a1" font-weight="bold">✓</text>
<text x="32.8" y="337" fill="#6c7086">├─</text>
<text x="49.6" y="337" fill="#cdd6f4"> API endpoints (FastAPI)...</text>
<text x="352" y="337" fill="#a6e3a1" font-weight="bold">✓</text>
<text x="32.8" y="354" fill="#6c7086">├─</text>
<text x="49.6" y="354" fill="#cdd6f4"> Auth flow (JWT + Telegram)...</text>
<text x="352" y="354" fill="#a6e3a1" font-weight="bold">✓</text>
<text x="32.8" y="371" fill="#6c7086">└─</text>
<text x="49.6" y="371" fill="#cdd6f4"> Implementation plan...</text>
<text x="352" y="371" fill="#a6e3a1" font-weight="bold">✓</text>
<text x="16" y="405" fill="#94e2d5" font-weight="bold">💻 Phase 3: Implementation</text>
<text x="32.8" y="422" fill="#6c7086">├─</text>
<text x="49.6" y="422" fill="#cdd6f4"> Backend: 12 files created...</text>
<text x="352" y="422" fill="#a6e3a1" font-weight="bold">✓</text>
<text x="32.8" y="439" fill="#6c7086">├─</text>
<text x="49.6" y="439" fill="#cdd6f4"> Frontend: 8 files created...</text>
<text x="352" y="439" fill="#a6e3a1" font-weight="bold">✓</text>
<text x="32.8" y="456" fill="#6c7086">├─</text>
<text x="49.6" y="456" fill="#cdd6f4"> Telegram bot: 4 files created...</text>
<text x="352" y="456" fill="#a6e3a1" font-weight="bold">✓</text>
<text x="32.8" y="473" fill="#6c7086">└─</text>
<text x="49.6" y="473" fill="#cdd6f4"> Docker + deployment config...</text>
<text x="352" y="473" fill="#a6e3a1" font-weight="bold">✓</text>
<text x="16" y="507" fill="#94e2d5" font-weight="bold">🧪 Phase 4: Quality</text>
<text x="32.8" y="524" fill="#6c7086">├─</text>
<text x="49.6" y="524" fill="#cdd6f4"> Tests: 24 unit + 8 integration...</text>
<text x="352" y="524" fill="#a6e3a1" font-weight="bold">✓</text>
<text x="32.8" y="541" fill="#6c7086">├─</text>
<text x="49.6" y="541" fill="#cdd6f4"> Code review (sub-agent)...</text>
<text x="352" y="541" fill="#a6e3a1" font-weight="bold">✓</text>
<text x="32.8" y="558" fill="#6c7086">└─</text>
<text x="49.6" y="558" fill="#cdd6f4"> Documentation generated...</text>
<text x="352" y="558" fill="#a6e3a1" font-weight="bold">✓</text>
<text x="16" y="592" fill="#a6e3a1" font-weight="bold">━━━━━━━━━━━━━━━━━━━━━━━━━━━━━━━━━━━━━━━━━━━━━━━━━━━━━━━━━</text>
<text x="16" y="609" fill="#a6e3a1" font-weight="bold">✅ Project ready!</text>
<text x="150.4" y="609" fill="#cdd6f4">  24 files created across 4 phases</text>
<text x="16" y="626" fill="#a6e3a1" font-weight="bold">━━━━━━━━━━━━━━━━━━━━━━━━━━━━━━━━━━━━━━━━━━━━━━━━━━━━━━━━━</text>
<text x="16" y="660" fill="#6c7086">Files created:</text>
<text x="16" y="677" fill="#cdd6f4">  docs/STRATEGIC_PLAN.md</text>
<text x="16" y="694" fill="#cdd6f4">  docs/ARCHITECTURE.md</text>
<text x="16" y="711" fill="#a6e3a1" font-weight="bold">&gt;</text>
<text x="32.8" y="711" fill="#6c7086">ntext preserved for next session.</text>
</g>
</svg>